<?xml version="1.0" encoding="UTF-8"?>
<svg id="Layer_1" data-name="Layer 1" xmlns="http://www.w3.org/2000/svg" viewBox="0 0 235 235">
  <defs>
    <style>
      .cls-1 {
        fill: #1e1b4b;
      }

      .cls-2 {
        fill: #8b57f6;
      }
    </style>
  </defs>
  <rect class="cls-1" width="235" height="235"/>
  <g>
    <path class="cls-2" d="M27.05,150.84v-65.84h16.76v13.91c1.03-2.93,2.63-5.51,4.81-7.73,2.18-2.22,4.69-3.94,7.55-5.17,2.85-1.23,5.74-1.84,8.68-1.84,4.99,0,9.37,1.11,13.13,3.33,3.76,2.22,6.67,5.41,8.74,9.57,2.06,4.16,3.09,9.13,3.09,14.92v38.87h-16.64v-35.66c0-5.15-1.35-9.23-4.04-12.24-2.69-3.01-6.22-4.52-10.58-4.52-2.85,0-5.39.77-7.61,2.32-2.22,1.54-3.96,3.67-5.23,6.36-1.27,2.69-1.9,5.79-1.9,9.27v34.47h-16.76Z"/>
    <path class="cls-2" d="M99.08,150.84v-65.84h16.76v13.91c1.03-2.93,2.59-5.51,4.7-7.73,2.1-2.22,4.56-3.94,7.37-5.17,2.81-1.23,5.68-1.84,8.62-1.84,6.02,0,11.05,1.66,15.09,4.99,4.04,3.33,6.54,7.92,7.49,13.79.95-3.88,2.54-7.21,4.75-9.98,2.22-2.77,4.91-4.93,8.08-6.48,3.17-1.54,6.62-2.32,10.34-2.32,7.84,0,14.08,2.42,18.72,7.25,4.64,4.83,6.95,11.77,6.95,20.8v38.63h-16.76v-35.42c0-5.31-1.35-9.47-4.04-12.48-2.7-3.01-6.22-4.52-10.58-4.52s-8,1.71-10.7,5.11c-2.69,3.41-4.04,7.77-4.04,13.07v34.23h-16.64v-35.54c0-5.23-1.33-9.35-3.98-12.36-2.66-3.01-6.2-4.52-10.64-4.52-2.93,0-5.51.79-7.73,2.38-2.22,1.59-3.94,3.72-5.17,6.42-1.23,2.69-1.84,5.82-1.84,9.39v34.23h-16.76Z"/>
  </g>
</svg>