<?xml version="1.0" encoding="UTF-8"?>
<svg id="Layer_1" data-name="Layer 1" xmlns="http://www.w3.org/2000/svg" viewBox="0 0 548.98 82.96">
  <defs>
    <style>
      .cls-1 {
        fill: #8b5cf6;
      }
    </style>
  </defs>
  <path class="cls-1" d="M0,82.13V16.28h16.76v13.91c1.03-2.93,2.63-5.51,4.81-7.73,2.18-2.22,4.69-3.94,7.55-5.17,2.85-1.23,5.74-1.84,8.68-1.84,4.99,0,9.37,1.11,13.13,3.33,3.76,2.22,6.67,5.41,8.74,9.57,2.06,4.16,3.09,9.13,3.09,14.92v38.87h-16.64v-35.66c0-5.15-1.35-9.23-4.04-12.24-2.69-3.01-6.22-4.52-10.58-4.52-2.85,0-5.39.77-7.61,2.32-2.22,1.54-3.96,3.67-5.23,6.36-1.27,2.69-1.9,5.78-1.9,9.27v34.47H0Z"/>
  <path class="cls-1" d="M101.38,82.96c-6.42,0-12.14-1.37-17.17-4.1-5.03-2.73-9.03-6.67-12-11.83-2.97-5.15-4.46-11.13-4.46-17.95s1.5-12.74,4.52-17.77c3.01-5.03,7.07-8.93,12.18-11.71,5.11-2.77,10.88-4.16,17.29-4.16s12.06,1.37,17.17,4.1c5.11,2.73,9.17,6.62,12.18,11.65,3.01,5.03,4.52,10.99,4.52,17.89s-1.54,12.8-4.64,17.95c-3.09,5.15-7.21,9.09-12.36,11.83-5.15,2.73-10.9,4.1-17.23,4.1ZM101.26,68.46c2.93,0,5.71-.71,8.32-2.14,2.62-1.43,4.75-3.57,6.42-6.42s2.5-6.46,2.5-10.82-.81-7.84-2.44-10.7c-1.62-2.85-3.73-4.97-6.3-6.36-2.58-1.39-5.33-2.08-8.26-2.08s-5.65.69-8.14,2.08c-2.5,1.39-4.54,3.51-6.12,6.36-1.59,2.85-2.38,6.42-2.38,10.7s.75,7.96,2.26,10.82c1.5,2.85,3.51,4.99,6,6.42s5.21,2.14,8.14,2.14Z"/>
  <path class="cls-1" d="M166.28,82.96c-6.18,0-11.07-1.84-14.68-5.53-3.61-3.68-5.41-8.89-5.41-15.63v-31.97h-10.22v-13.55h41.72v13.55h-14.5v32.45c0,2.06.59,3.61,1.78,4.64,1.19,1.03,2.54,1.54,4.04,1.54.95,0,1.84-.16,2.67-.48.83-.32,1.64-.79,2.44-1.43l5.94,11.53c-2.06,1.66-4.2,2.89-6.42,3.68-2.22.79-4.68,1.19-7.37,1.19ZM140.96,21.51v-5.23c1.74,0,3.11-.51,4.1-1.55.99-1.03,1.49-2.42,1.49-4.16V0h16.52v7.96c0,1.11-.28,2.26-.83,3.45-.56,1.19-1.37,2.22-2.44,3.09-1.07.87-2.28,1.47-3.62,1.78l-15.21,5.23Z"/>
  <path class="cls-1" d="M215.48,82.96c-5.07,0-9.79-.79-14.14-2.38-4.36-1.58-8.12-3.86-11.29-6.83-3.17-2.97-5.65-6.48-7.43-10.52-1.78-4.04-2.67-8.56-2.67-13.55s.93-9.82,2.79-14.02c1.86-4.2,4.4-7.8,7.61-10.82,3.21-3.01,6.91-5.33,11.11-6.95,4.2-1.62,8.64-2.44,13.31-2.44,4.04,0,7.79.53,11.23,1.6,3.45,1.07,6.5,2.58,9.15,4.52,2.65,1.94,4.73,4.26,6.24,6.95,1.5,2.69,2.26,5.63,2.26,8.8,0,4.2-1.21,7.67-3.62,10.4-2.42,2.73-5.59,4.89-9.51,6.48-3.92,1.59-8.22,2.69-12.9,3.33-4.68.64-9.27.87-13.79.71-.63-.08-1.45-.12-2.44-.12s-1.86-.04-2.61-.12c-.75-.08-1.25-.08-1.49,0,.47,2.22,1.58,4.22,3.33,6,1.74,1.78,3.94,3.19,6.6,4.22,2.65,1.03,5.49,1.54,8.5,1.54,2.62,0,5.17-.46,7.67-1.37,2.5-.91,4.77-2.14,6.83-3.68,2.06-1.55,3.76-3.23,5.11-5.05l11.53,8.68c-2.54,3.25-5.47,5.98-8.79,8.2-3.33,2.22-6.89,3.84-10.7,4.87-3.8,1.03-7.77,1.54-11.88,1.54ZM204.43,46.23c2.54,0,5.15-.14,7.84-.42,2.69-.28,5.17-.73,7.43-1.37,2.26-.63,4.08-1.56,5.47-2.79,1.38-1.23,2.08-2.79,2.08-4.69,0-1.58-.52-2.99-1.55-4.22-1.03-1.23-2.46-2.22-4.28-2.97-1.82-.75-3.88-1.13-6.18-1.13-3.65,0-6.88.83-9.69,2.5-2.81,1.66-5.01,3.82-6.6,6.48-1.59,2.66-2.46,5.41-2.61,8.26.87.08,2.04.16,3.51.24,1.47.08,2.99.12,4.58.12Z"/>
  <path class="cls-1" d="M251.25,82.13V16.28h16.76v13.91c1.03-2.93,2.59-5.51,4.7-7.73,2.1-2.22,4.56-3.94,7.37-5.17,2.81-1.23,5.68-1.84,8.62-1.84,6.02,0,11.05,1.66,15.09,4.99,4.04,3.33,6.54,7.92,7.49,13.79.95-3.88,2.54-7.21,4.75-9.98,2.22-2.77,4.91-4.93,8.08-6.48,3.17-1.54,6.62-2.32,10.34-2.32,7.84,0,14.08,2.42,18.72,7.25,4.64,4.83,6.95,11.77,6.95,20.8v38.63h-16.76v-35.42c0-5.31-1.35-9.47-4.04-12.48-2.7-3.01-6.22-4.52-10.58-4.52s-8,1.71-10.7,5.11c-2.69,3.41-4.04,7.77-4.04,13.07v34.23h-16.64v-35.54c0-5.23-1.33-9.35-3.98-12.36-2.66-3.01-6.2-4.52-10.64-4.52-2.93,0-5.51.79-7.73,2.38-2.22,1.59-3.94,3.73-5.17,6.42-1.23,2.69-1.84,5.82-1.84,9.39v34.23h-16.76Z"/>
  <path class="cls-1" d="M394.59,82.96c-5.71,0-10.8-1.44-15.27-4.34-4.48-2.89-7.98-6.89-10.52-12-2.54-5.11-3.8-10.91-3.8-17.41s1.27-12.4,3.8-17.47c2.54-5.07,6.04-9.05,10.52-11.95,4.48-2.89,9.57-4.34,15.27-4.34,5.23,0,9.81,1.35,13.73,4.04,3.92,2.69,6.67,6.42,8.26,11.17v-14.38h16.88v65.85h-7.84c-2.77,0-4.97-.81-6.6-2.44-1.62-1.62-2.44-3.74-2.44-6.36v-5.59c-1.66,4.75-4.44,8.48-8.32,11.17-3.88,2.69-8.44,4.04-13.67,4.04ZM399.35,68.34c3.09,0,5.92-.73,8.5-2.2,2.57-1.47,4.67-3.64,6.3-6.54,1.62-2.89,2.44-6.36,2.44-10.4s-.81-7.59-2.44-10.4c-1.62-2.81-3.74-4.97-6.36-6.48-2.62-1.5-5.43-2.26-8.44-2.26s-5.82.75-8.44,2.26c-2.61,1.51-4.74,3.67-6.36,6.48-1.62,2.81-2.44,6.28-2.44,10.4s.81,7.51,2.44,10.4c1.62,2.89,3.76,5.07,6.42,6.54,2.65,1.47,5.45,2.2,8.38,2.2Z"/>
  <path class="cls-1" d="M468.4,82.96c-6.18,0-11.07-1.84-14.68-5.53-3.61-3.68-5.41-8.89-5.41-15.63v-31.97h-10.22v-13.55h41.72v13.55h-14.5v32.45c0,2.06.59,3.61,1.78,4.64,1.19,1.03,2.54,1.54,4.04,1.54.95,0,1.84-.16,2.67-.48.83-.32,1.64-.79,2.44-1.43l5.94,11.53c-2.06,1.66-4.2,2.89-6.42,3.68-2.22.79-4.68,1.19-7.37,1.19ZM443.08,21.51v-5.23c1.74,0,3.11-.51,4.1-1.55.99-1.03,1.49-2.42,1.49-4.16V0h16.52v7.96c0,1.11-.28,2.26-.83,3.45-.56,1.19-1.37,2.22-2.44,3.09-1.07.87-2.28,1.47-3.62,1.78l-15.21,5.23Z"/>
  <path class="cls-1" d="M517.6,82.96c-5.07,0-9.79-.79-14.14-2.38-4.36-1.58-8.12-3.86-11.29-6.83-3.17-2.97-5.65-6.48-7.43-10.52-1.78-4.04-2.67-8.56-2.67-13.55s.93-9.82,2.79-14.02c1.86-4.2,4.4-7.8,7.61-10.82,3.21-3.01,6.91-5.33,11.11-6.95,4.2-1.62,8.64-2.44,13.31-2.44,4.04,0,7.79.53,11.23,1.6,3.45,1.07,6.5,2.58,9.15,4.52,2.65,1.94,4.73,4.26,6.24,6.95,1.5,2.69,2.26,5.63,2.26,8.8,0,4.2-1.21,7.67-3.62,10.4-2.42,2.73-5.59,4.89-9.51,6.48-3.92,1.59-8.22,2.69-12.9,3.33-4.68.64-9.27.87-13.79.71-.63-.08-1.45-.12-2.44-.12s-1.86-.04-2.61-.12c-.75-.08-1.25-.08-1.49,0,.47,2.22,1.58,4.22,3.33,6,1.74,1.78,3.94,3.19,6.6,4.22,2.65,1.03,5.49,1.54,8.5,1.54,2.62,0,5.17-.46,7.67-1.37,2.5-.91,4.77-2.14,6.83-3.68,2.06-1.55,3.76-3.23,5.11-5.05l11.53,8.68c-2.54,3.25-5.47,5.98-8.79,8.2-3.33,2.22-6.89,3.84-10.7,4.87-3.8,1.03-7.77,1.54-11.88,1.54ZM506.55,46.23c2.54,0,5.15-.14,7.84-.42,2.69-.28,5.17-.73,7.43-1.37,2.26-.63,4.08-1.56,5.47-2.79,1.38-1.23,2.08-2.79,2.08-4.69,0-1.58-.52-2.99-1.55-4.22-1.03-1.23-2.46-2.22-4.28-2.97-1.82-.75-3.88-1.13-6.18-1.13-3.65,0-6.88.83-9.69,2.5-2.81,1.66-5.01,3.82-6.6,6.48-1.59,2.66-2.46,5.41-2.61,8.26.87.08,2.04.16,3.51.24,1.47.08,2.99.12,4.58.12Z"/>
</svg>